<mxfile host="app.diagrams.net" modified="2024-01-17T08:00:40.314Z" agent="Mozilla/5.0 (Macintosh; Intel Mac OS X 10_15_7) AppleWebKit/537.36 (KHTML, like Gecko) Chrome/117.0.0.0 Safari/537.36" etag="0vRjAv1tAOdJ1Ep_yNtq" version="22.1.17" type="github">
  <diagram name="第 1 页" id="kjWoDe90movP3GVGkAOm">
    <mxGraphModel dx="2009" dy="1544" grid="0" gridSize="10" guides="1" tooltips="1" connect="1" arrows="1" fold="1" page="0" pageScale="1" pageWidth="827" pageHeight="1169" math="0" shadow="0">
      <root>
        <mxCell id="0" />
        <mxCell id="1" parent="0" />
        <mxCell id="MFeed4d9ZoU8dtEDPjQN-88" value="" style="rounded=0;whiteSpace=wrap;html=1;fillColor=#f8cecc;strokeColor=#b85450;" vertex="1" parent="1">
          <mxGeometry x="1759" y="-255" width="483" height="293" as="geometry" />
        </mxCell>
        <mxCell id="MFeed4d9ZoU8dtEDPjQN-4" value="Framework and Algorithm" style="swimlane;whiteSpace=wrap;html=1;startSize=45;fontSize=15;fillColor=#ffe6cc;strokeColor=#d79b00;swimlaneFillColor=#FFFBDE;" vertex="1" parent="1">
          <mxGeometry x="3056" y="-283" width="305" height="1199" as="geometry" />
        </mxCell>
        <mxCell id="MFeed4d9ZoU8dtEDPjQN-16" value="Framework and Algorithm Selection" style="rounded=1;whiteSpace=wrap;html=1;fontSize=13;" vertex="1" parent="MFeed4d9ZoU8dtEDPjQN-4">
          <mxGeometry x="71" y="342" width="168" height="53.5" as="geometry" />
        </mxCell>
        <mxCell id="MFeed4d9ZoU8dtEDPjQN-86" value="&amp;nbsp;③ Reconstruct&amp;nbsp;" style="text;html=1;strokeColor=none;fillColor=none;align=center;verticalAlign=middle;whiteSpace=wrap;rounded=0;" vertex="1" parent="MFeed4d9ZoU8dtEDPjQN-4">
          <mxGeometry x="207" y="916" width="96" height="30" as="geometry" />
        </mxCell>
        <mxCell id="MFeed4d9ZoU8dtEDPjQN-65" value="① No Action" style="text;html=1;strokeColor=none;fillColor=none;align=center;verticalAlign=middle;whiteSpace=wrap;rounded=0;" vertex="1" parent="MFeed4d9ZoU8dtEDPjQN-4">
          <mxGeometry x="41" y="261" width="96" height="30" as="geometry" />
        </mxCell>
        <mxCell id="Fn_SYdDXyTarmtpHNBiJ-152" value="" style="rounded=1;whiteSpace=wrap;html=1;fillColor=#ffe6cc;strokeColor=#d79b00;dashed=1;" parent="1" vertex="1">
          <mxGeometry x="1789" y="410" width="410" height="88" as="geometry" />
        </mxCell>
        <mxCell id="Fn_SYdDXyTarmtpHNBiJ-78" style="edgeStyle=orthogonalEdgeStyle;rounded=0;orthogonalLoop=1;jettySize=auto;html=1;exitX=1;exitY=0.5;exitDx=0;exitDy=0;entryX=0;entryY=0.5;entryDx=0;entryDy=0;" parent="1" source="Fn_SYdDXyTarmtpHNBiJ-5" target="Fn_SYdDXyTarmtpHNBiJ-33" edge="1">
          <mxGeometry relative="1" as="geometry" />
        </mxCell>
        <mxCell id="Fn_SYdDXyTarmtpHNBiJ-5" value="" style="rounded=0;whiteSpace=wrap;html=1;dashed=1;fillColor=#d5e8d4;strokeColor=#82b366;fontSize=13;" parent="1" vertex="1">
          <mxGeometry x="270" y="43" width="410" height="165" as="geometry" />
        </mxCell>
        <mxCell id="Fn_SYdDXyTarmtpHNBiJ-12" style="edgeStyle=orthogonalEdgeStyle;rounded=0;orthogonalLoop=1;jettySize=auto;html=1;exitX=1;exitY=0.5;exitDx=0;exitDy=0;entryX=0;entryY=0.5;entryDx=0;entryDy=0;fontSize=13;" parent="1" edge="1">
          <mxGeometry relative="1" as="geometry">
            <mxPoint x="439.9999999999998" y="104" as="sourcePoint" />
            <mxPoint x="520.0000000000002" y="104" as="targetPoint" />
          </mxGeometry>
        </mxCell>
        <mxCell id="Fn_SYdDXyTarmtpHNBiJ-18" style="edgeStyle=orthogonalEdgeStyle;rounded=0;orthogonalLoop=1;jettySize=auto;html=1;exitX=0.5;exitY=1;exitDx=0;exitDy=0;entryX=0.5;entryY=0;entryDx=0;entryDy=0;fontSize=13;" parent="1" edge="1">
          <mxGeometry relative="1" as="geometry">
            <mxPoint x="585.0000000000002" y="124" as="sourcePoint" />
            <mxPoint x="585.0000000000002" y="151" as="targetPoint" />
          </mxGeometry>
        </mxCell>
        <mxCell id="Fn_SYdDXyTarmtpHNBiJ-19" style="edgeStyle=orthogonalEdgeStyle;rounded=0;orthogonalLoop=1;jettySize=auto;html=1;exitX=0;exitY=0.5;exitDx=0;exitDy=0;entryX=1;entryY=0.5;entryDx=0;entryDy=0;fontSize=13;" parent="1" edge="1">
          <mxGeometry relative="1" as="geometry">
            <mxPoint x="520.0000000000002" y="171" as="sourcePoint" />
            <mxPoint x="439.9999999999998" y="171" as="targetPoint" />
          </mxGeometry>
        </mxCell>
        <mxCell id="Fn_SYdDXyTarmtpHNBiJ-6" value="Model Generation" style="text;html=1;strokeColor=none;fillColor=none;align=center;verticalAlign=middle;whiteSpace=wrap;rounded=0;fontSize=13;" parent="1" vertex="1">
          <mxGeometry x="385" y="46" width="180" height="30" as="geometry" />
        </mxCell>
        <mxCell id="Fn_SYdDXyTarmtpHNBiJ-20" style="edgeStyle=orthogonalEdgeStyle;rounded=0;orthogonalLoop=1;jettySize=auto;html=1;exitX=0.5;exitY=0;exitDx=0;exitDy=0;entryX=0.5;entryY=1;entryDx=0;entryDy=0;fontSize=13;" parent="1" edge="1">
          <mxGeometry relative="1" as="geometry">
            <mxPoint x="374.9999999999998" y="151" as="sourcePoint" />
            <mxPoint x="374.9999999999998" y="124" as="targetPoint" />
          </mxGeometry>
        </mxCell>
        <mxCell id="Fn_SYdDXyTarmtpHNBiJ-25" style="edgeStyle=orthogonalEdgeStyle;rounded=0;orthogonalLoop=1;jettySize=auto;html=1;exitX=1;exitY=0.5;exitDx=0;exitDy=0;entryX=0;entryY=0.5;entryDx=0;entryDy=0;fontSize=13;" parent="1" source="Fn_SYdDXyTarmtpHNBiJ-24" target="Fn_SYdDXyTarmtpHNBiJ-5" edge="1">
          <mxGeometry relative="1" as="geometry" />
        </mxCell>
        <mxCell id="Fn_SYdDXyTarmtpHNBiJ-50" style="edgeStyle=orthogonalEdgeStyle;rounded=0;orthogonalLoop=1;jettySize=auto;html=1;entryX=0;entryY=0.5;entryDx=0;entryDy=0;fontSize=13;" parent="1" target="Fn_SYdDXyTarmtpHNBiJ-24" edge="1">
          <mxGeometry relative="1" as="geometry">
            <mxPoint x="-50" y="125" as="targetPoint" />
            <mxPoint x="-60" y="126" as="sourcePoint" />
          </mxGeometry>
        </mxCell>
        <mxCell id="Fn_SYdDXyTarmtpHNBiJ-51" value="&amp;nbsp;Prior Preparation&amp;nbsp;" style="edgeLabel;html=1;align=center;verticalAlign=middle;resizable=0;points=[];fontSize=13;" parent="Fn_SYdDXyTarmtpHNBiJ-50" vertex="1" connectable="0">
          <mxGeometry x="-0.0652" relative="1" as="geometry">
            <mxPoint as="offset" />
          </mxGeometry>
        </mxCell>
        <mxCell id="Fn_SYdDXyTarmtpHNBiJ-24" value="Data Processing" style="rounded=1;whiteSpace=wrap;html=1;fillColor=#dae8fc;strokeColor=#6c8ebf;fontSize=13;" parent="1" vertex="1">
          <mxGeometry x="90" y="105.5" width="130" height="40" as="geometry" />
        </mxCell>
        <mxCell id="Fn_SYdDXyTarmtpHNBiJ-26" value="Model Training" style="rounded=1;whiteSpace=wrap;html=1;fillColor=#dae8fc;strokeColor=#6c8ebf;fontSize=13;" parent="1" vertex="1">
          <mxGeometry x="310" y="84" width="130" height="40" as="geometry" />
        </mxCell>
        <mxCell id="Fn_SYdDXyTarmtpHNBiJ-60" style="edgeStyle=orthogonalEdgeStyle;rounded=0;orthogonalLoop=1;jettySize=auto;html=1;exitX=0.5;exitY=0;exitDx=0;exitDy=0;entryX=0.5;entryY=0;entryDx=0;entryDy=0;fontSize=13;" parent="1" source="Fn_SYdDXyTarmtpHNBiJ-28" target="Fn_SYdDXyTarmtpHNBiJ-6" edge="1">
          <mxGeometry relative="1" as="geometry">
            <Array as="points">
              <mxPoint x="1115" y="-26" />
              <mxPoint x="476" y="-26" />
              <mxPoint x="476" y="46" />
            </Array>
          </mxGeometry>
        </mxCell>
        <mxCell id="Fn_SYdDXyTarmtpHNBiJ-28" value="Model Operation" style="rounded=1;whiteSpace=wrap;html=1;fillColor=#dae8fc;strokeColor=#6c8ebf;fontSize=13;" parent="1" vertex="1">
          <mxGeometry x="1050" y="105.5" width="130" height="40" as="geometry" />
        </mxCell>
        <mxCell id="Fn_SYdDXyTarmtpHNBiJ-30" value="Model Tuning" style="rounded=1;whiteSpace=wrap;html=1;fillColor=#dae8fc;strokeColor=#6c8ebf;fontSize=13;" parent="1" vertex="1">
          <mxGeometry x="310" y="151" width="130" height="40" as="geometry" />
        </mxCell>
        <mxCell id="Fn_SYdDXyTarmtpHNBiJ-31" value="Model Evaluation" style="rounded=1;whiteSpace=wrap;html=1;fillColor=#dae8fc;strokeColor=#6c8ebf;fontSize=13;" parent="1" vertex="1">
          <mxGeometry x="520" y="84" width="130" height="40" as="geometry" />
        </mxCell>
        <mxCell id="Fn_SYdDXyTarmtpHNBiJ-32" value="Model Testing" style="rounded=1;whiteSpace=wrap;html=1;fillColor=#dae8fc;strokeColor=#6c8ebf;fontSize=13;" parent="1" vertex="1">
          <mxGeometry x="520" y="151" width="130" height="40" as="geometry" />
        </mxCell>
        <mxCell id="Fn_SYdDXyTarmtpHNBiJ-42" style="edgeStyle=orthogonalEdgeStyle;rounded=0;orthogonalLoop=1;jettySize=auto;html=1;exitX=1;exitY=0.5;exitDx=0;exitDy=0;entryX=0;entryY=0.5;entryDx=0;entryDy=0;fontSize=13;" parent="1" source="Fn_SYdDXyTarmtpHNBiJ-33" target="Fn_SYdDXyTarmtpHNBiJ-28" edge="1">
          <mxGeometry relative="1" as="geometry" />
        </mxCell>
        <mxCell id="Fn_SYdDXyTarmtpHNBiJ-33" value="Model Deployment" style="rounded=1;whiteSpace=wrap;html=1;fillColor=#dae8fc;strokeColor=#6c8ebf;fontSize=13;" parent="1" vertex="1">
          <mxGeometry x="790" y="105.5" width="130" height="40" as="geometry" />
        </mxCell>
        <mxCell id="Fn_SYdDXyTarmtpHNBiJ-73" style="edgeStyle=orthogonalEdgeStyle;rounded=0;orthogonalLoop=1;jettySize=auto;html=1;exitX=0.5;exitY=1;exitDx=0;exitDy=0;exitPerimeter=0;entryX=0.5;entryY=0;entryDx=0;entryDy=0;" parent="1" source="Fn_SYdDXyTarmtpHNBiJ-37" target="Fn_SYdDXyTarmtpHNBiJ-69" edge="1">
          <mxGeometry relative="1" as="geometry" />
        </mxCell>
        <mxCell id="Fn_SYdDXyTarmtpHNBiJ-37" value="Data Drift" style="strokeWidth=1;html=1;shape=mxgraph.flowchart.decision;whiteSpace=wrap;fillColor=#f8cecc;strokeColor=#b85450;fontSize=13;" parent="1" vertex="1">
          <mxGeometry x="1000" y="258" width="110" height="47" as="geometry" />
        </mxCell>
        <mxCell id="Fn_SYdDXyTarmtpHNBiJ-64" style="edgeStyle=orthogonalEdgeStyle;rounded=0;orthogonalLoop=1;jettySize=auto;html=1;entryX=0.5;entryY=0;entryDx=0;entryDy=0;fontSize=13;exitX=0.5;exitY=1;exitDx=0;exitDy=0;exitPerimeter=0;" parent="1" source="Fn_SYdDXyTarmtpHNBiJ-38" target="Fn_SYdDXyTarmtpHNBiJ-24" edge="1">
          <mxGeometry relative="1" as="geometry">
            <mxPoint x="1250" y="282" as="sourcePoint" />
            <Array as="points">
              <mxPoint x="1185" y="330" />
              <mxPoint x="1270" y="330" />
              <mxPoint x="1270" y="-26" />
              <mxPoint x="155" y="-26" />
            </Array>
          </mxGeometry>
        </mxCell>
        <mxCell id="Fn_SYdDXyTarmtpHNBiJ-38" value="Concept Drift" style="strokeWidth=1;html=1;shape=mxgraph.flowchart.decision;whiteSpace=wrap;fillColor=#f8cecc;strokeColor=#b85450;fontSize=13;" parent="1" vertex="1">
          <mxGeometry x="1120" y="258" width="130" height="47" as="geometry" />
        </mxCell>
        <mxCell id="Fn_SYdDXyTarmtpHNBiJ-40" style="edgeStyle=orthogonalEdgeStyle;rounded=0;orthogonalLoop=1;jettySize=auto;html=1;exitX=0.5;exitY=1;exitDx=0;exitDy=0;entryX=0.5;entryY=0;entryDx=0;entryDy=0;entryPerimeter=0;fontSize=13;" parent="1" source="Fn_SYdDXyTarmtpHNBiJ-28" target="Fn_SYdDXyTarmtpHNBiJ-37" edge="1">
          <mxGeometry relative="1" as="geometry" />
        </mxCell>
        <mxCell id="Fn_SYdDXyTarmtpHNBiJ-41" style="edgeStyle=orthogonalEdgeStyle;rounded=0;orthogonalLoop=1;jettySize=auto;html=1;exitX=0.5;exitY=1;exitDx=0;exitDy=0;entryX=0.5;entryY=0;entryDx=0;entryDy=0;entryPerimeter=0;fontSize=13;" parent="1" source="Fn_SYdDXyTarmtpHNBiJ-28" target="Fn_SYdDXyTarmtpHNBiJ-38" edge="1">
          <mxGeometry relative="1" as="geometry" />
        </mxCell>
        <mxCell id="Fn_SYdDXyTarmtpHNBiJ-59" style="edgeStyle=orthogonalEdgeStyle;rounded=0;orthogonalLoop=1;jettySize=auto;html=1;exitX=0;exitY=0.5;exitDx=0;exitDy=0;entryX=0.5;entryY=1;entryDx=0;entryDy=0;fontSize=13;" parent="1" source="Fn_SYdDXyTarmtpHNBiJ-46" target="Fn_SYdDXyTarmtpHNBiJ-5" edge="1">
          <mxGeometry relative="1" as="geometry" />
        </mxCell>
        <mxCell id="Fn_SYdDXyTarmtpHNBiJ-53" style="edgeStyle=orthogonalEdgeStyle;rounded=0;orthogonalLoop=1;jettySize=auto;html=1;exitX=0;exitY=0.5;exitDx=0;exitDy=0;entryX=0.5;entryY=1;entryDx=0;entryDy=0;fontSize=13;" parent="1" source="Fn_SYdDXyTarmtpHNBiJ-46" target="Fn_SYdDXyTarmtpHNBiJ-24" edge="1">
          <mxGeometry relative="1" as="geometry" />
        </mxCell>
        <mxCell id="Fn_SYdDXyTarmtpHNBiJ-54" value="&amp;nbsp;②&amp;nbsp;Retrain&amp;nbsp;" style="edgeLabel;html=1;align=center;verticalAlign=middle;resizable=0;points=[];fontSize=13;" parent="Fn_SYdDXyTarmtpHNBiJ-53" vertex="1" connectable="0">
          <mxGeometry x="-0.4634" y="-3" relative="1" as="geometry">
            <mxPoint x="103" y="3" as="offset" />
          </mxGeometry>
        </mxCell>
        <mxCell id="Fn_SYdDXyTarmtpHNBiJ-79" style="edgeStyle=orthogonalEdgeStyle;rounded=0;orthogonalLoop=1;jettySize=auto;html=1;exitX=0.5;exitY=0;exitDx=0;exitDy=0;entryX=0.25;entryY=1;entryDx=0;entryDy=0;" parent="1" source="Fn_SYdDXyTarmtpHNBiJ-46" target="Fn_SYdDXyTarmtpHNBiJ-28" edge="1">
          <mxGeometry relative="1" as="geometry">
            <Array as="points">
              <mxPoint x="705" y="170" />
              <mxPoint x="1082" y="170" />
            </Array>
          </mxGeometry>
        </mxCell>
        <mxCell id="Fn_SYdDXyTarmtpHNBiJ-81" value="① No Action" style="edgeLabel;html=1;align=center;verticalAlign=middle;resizable=0;points=[];" parent="Fn_SYdDXyTarmtpHNBiJ-79" vertex="1" connectable="0">
          <mxGeometry x="-0.5847" y="-1" relative="1" as="geometry">
            <mxPoint as="offset" />
          </mxGeometry>
        </mxCell>
        <mxCell id="Fn_SYdDXyTarmtpHNBiJ-46" value="Visualization of Distribution" style="rounded=1;whiteSpace=wrap;html=1;fillColor=#dae8fc;strokeColor=#6c8ebf;fontSize=13;" parent="1" vertex="1">
          <mxGeometry x="640" y="360" width="130" height="40" as="geometry" />
        </mxCell>
        <mxCell id="Fn_SYdDXyTarmtpHNBiJ-65" value="&lt;span style=&quot;color: rgb(0, 0, 0); font-family: Helvetica; font-size: 13px; font-style: normal; font-variant-ligatures: normal; font-variant-caps: normal; font-weight: 400; letter-spacing: normal; orphans: 2; text-align: center; text-indent: 0px; text-transform: none; widows: 2; word-spacing: 0px; -webkit-text-stroke-width: 0px; background-color: rgb(255, 255, 255); text-decoration-thickness: initial; text-decoration-style: initial; text-decoration-color: initial; float: none; display: inline !important;&quot;&gt;&amp;nbsp;③ Reconstruct&amp;nbsp;&lt;/span&gt;" style="text;whiteSpace=wrap;html=1;" parent="1" vertex="1">
          <mxGeometry x="794.0000390624998" y="-43.00001953125005" width="121" height="38" as="geometry" />
        </mxCell>
        <mxCell id="Fn_SYdDXyTarmtpHNBiJ-74" style="edgeStyle=orthogonalEdgeStyle;rounded=0;orthogonalLoop=1;jettySize=auto;html=1;exitX=0;exitY=0.5;exitDx=0;exitDy=0;entryX=1;entryY=0.5;entryDx=0;entryDy=0;" parent="1" source="Fn_SYdDXyTarmtpHNBiJ-69" target="Fn_SYdDXyTarmtpHNBiJ-71" edge="1">
          <mxGeometry relative="1" as="geometry" />
        </mxCell>
        <mxCell id="Fn_SYdDXyTarmtpHNBiJ-69" value="Data Quality Checking" style="rounded=1;whiteSpace=wrap;html=1;fillColor=#dae8fc;strokeColor=#6c8ebf;fontSize=13;" parent="1" vertex="1">
          <mxGeometry x="985" y="360" width="140" height="40" as="geometry" />
        </mxCell>
        <mxCell id="Fn_SYdDXyTarmtpHNBiJ-77" style="edgeStyle=orthogonalEdgeStyle;rounded=0;orthogonalLoop=1;jettySize=auto;html=1;exitX=0;exitY=0.5;exitDx=0;exitDy=0;entryX=1;entryY=0.5;entryDx=0;entryDy=0;" parent="1" source="Fn_SYdDXyTarmtpHNBiJ-71" target="Fn_SYdDXyTarmtpHNBiJ-46" edge="1">
          <mxGeometry relative="1" as="geometry" />
        </mxCell>
        <mxCell id="Fn_SYdDXyTarmtpHNBiJ-71" value="Data Repairment" style="rounded=1;whiteSpace=wrap;html=1;fillColor=#dae8fc;strokeColor=#6c8ebf;fontSize=13;" parent="1" vertex="1">
          <mxGeometry x="820" y="360" width="130" height="40" as="geometry" />
        </mxCell>
        <mxCell id="Fn_SYdDXyTarmtpHNBiJ-82" value="Data Processing" style="rounded=1;whiteSpace=wrap;html=1;fillColor=#dae8fc;strokeColor=#6c8ebf;fontSize=13;" parent="1" vertex="1">
          <mxGeometry x="-76" y="246" width="114" height="58" as="geometry" />
        </mxCell>
        <mxCell id="Fn_SYdDXyTarmtpHNBiJ-83" value="" style="rounded=0;whiteSpace=wrap;html=1;dashed=1;fillColor=#d5e8d4;strokeColor=#82b366;fontSize=13;" parent="1" vertex="1">
          <mxGeometry x="160" y="473" width="410" height="165" as="geometry" />
        </mxCell>
        <mxCell id="Fn_SYdDXyTarmtpHNBiJ-84" value="Data Processing" style="text;html=1;strokeColor=none;fillColor=none;align=center;verticalAlign=middle;whiteSpace=wrap;rounded=0;fontSize=13;" parent="1" vertex="1">
          <mxGeometry x="275" y="480" width="180" height="30" as="geometry" />
        </mxCell>
        <mxCell id="Fn_SYdDXyTarmtpHNBiJ-86" value="Data Visualization" style="rounded=1;whiteSpace=wrap;html=1;fillColor=#dae8fc;strokeColor=#6c8ebf;fontSize=13;" parent="1" vertex="1">
          <mxGeometry x="180" y="546" width="130" height="40" as="geometry" />
        </mxCell>
        <mxCell id="Fn_SYdDXyTarmtpHNBiJ-120" style="edgeStyle=orthogonalEdgeStyle;rounded=0;orthogonalLoop=1;jettySize=auto;html=1;exitX=0.5;exitY=1;exitDx=0;exitDy=0;entryX=0.5;entryY=0;entryDx=0;entryDy=0;" parent="1" source="Fn_SYdDXyTarmtpHNBiJ-88" target="Fn_SYdDXyTarmtpHNBiJ-102" edge="1">
          <mxGeometry relative="1" as="geometry" />
        </mxCell>
        <mxCell id="Fn_SYdDXyTarmtpHNBiJ-88" value="" style="rounded=0;whiteSpace=wrap;html=1;dashed=1;fillColor=#dae8fc;strokeColor=#6c8ebf;fontSize=13;" parent="1" vertex="1">
          <mxGeometry x="1789" y="43" width="410" height="165" as="geometry" />
        </mxCell>
        <mxCell id="Fn_SYdDXyTarmtpHNBiJ-89" style="edgeStyle=orthogonalEdgeStyle;rounded=0;orthogonalLoop=1;jettySize=auto;html=1;exitX=1;exitY=0.5;exitDx=0;exitDy=0;entryX=0;entryY=0.5;entryDx=0;entryDy=0;fontSize=13;" parent="1" edge="1">
          <mxGeometry relative="1" as="geometry">
            <mxPoint x="1958.9999999999998" y="104" as="sourcePoint" />
            <mxPoint x="2039.0000000000002" y="104" as="targetPoint" />
          </mxGeometry>
        </mxCell>
        <mxCell id="Fn_SYdDXyTarmtpHNBiJ-90" style="edgeStyle=orthogonalEdgeStyle;rounded=0;orthogonalLoop=1;jettySize=auto;html=1;exitX=0.5;exitY=1;exitDx=0;exitDy=0;entryX=0.5;entryY=0;entryDx=0;entryDy=0;fontSize=13;" parent="1" edge="1">
          <mxGeometry relative="1" as="geometry">
            <mxPoint x="2104" y="124" as="sourcePoint" />
            <mxPoint x="2104" y="151" as="targetPoint" />
          </mxGeometry>
        </mxCell>
        <mxCell id="Fn_SYdDXyTarmtpHNBiJ-91" style="edgeStyle=orthogonalEdgeStyle;rounded=0;orthogonalLoop=1;jettySize=auto;html=1;exitX=0;exitY=0.5;exitDx=0;exitDy=0;entryX=1;entryY=0.5;entryDx=0;entryDy=0;fontSize=13;" parent="1" edge="1">
          <mxGeometry relative="1" as="geometry">
            <mxPoint x="2039.0000000000002" y="171" as="sourcePoint" />
            <mxPoint x="1958.9999999999998" y="171" as="targetPoint" />
          </mxGeometry>
        </mxCell>
        <mxCell id="Fn_SYdDXyTarmtpHNBiJ-92" value="Model Generation" style="text;html=1;strokeColor=none;fillColor=none;align=center;verticalAlign=middle;whiteSpace=wrap;rounded=0;fontSize=13;" parent="1" vertex="1">
          <mxGeometry x="1904" y="46" width="180" height="30" as="geometry" />
        </mxCell>
        <mxCell id="Fn_SYdDXyTarmtpHNBiJ-93" style="edgeStyle=orthogonalEdgeStyle;rounded=0;orthogonalLoop=1;jettySize=auto;html=1;exitX=0.5;exitY=0;exitDx=0;exitDy=0;entryX=0.5;entryY=1;entryDx=0;entryDy=0;fontSize=13;" parent="1" edge="1">
          <mxGeometry relative="1" as="geometry">
            <mxPoint x="1893.9999999999998" y="151" as="sourcePoint" />
            <mxPoint x="1893.9999999999998" y="124" as="targetPoint" />
          </mxGeometry>
        </mxCell>
        <mxCell id="Fn_SYdDXyTarmtpHNBiJ-95" value="Model Training" style="rounded=1;whiteSpace=wrap;html=1;fillColor=#d5e8d4;strokeColor=#82b366;fontSize=13;" parent="1" vertex="1">
          <mxGeometry x="1829" y="84" width="130" height="40" as="geometry" />
        </mxCell>
        <mxCell id="Fn_SYdDXyTarmtpHNBiJ-130" style="edgeStyle=orthogonalEdgeStyle;rounded=0;orthogonalLoop=1;jettySize=auto;html=1;exitX=1;exitY=0.5;exitDx=0;exitDy=0;entryX=1;entryY=0.5;entryDx=0;entryDy=0;" parent="1" source="Fn_SYdDXyTarmtpHNBiJ-97" target="Fn_SYdDXyTarmtpHNBiJ-88" edge="1">
          <mxGeometry relative="1" as="geometry">
            <Array as="points">
              <mxPoint x="2059" y="343" />
              <mxPoint x="2265" y="343" />
              <mxPoint x="2265" y="125" />
            </Array>
          </mxGeometry>
        </mxCell>
        <mxCell id="Fn_SYdDXyTarmtpHNBiJ-153" style="edgeStyle=orthogonalEdgeStyle;rounded=0;orthogonalLoop=1;jettySize=auto;html=1;exitX=0.5;exitY=1;exitDx=0;exitDy=0;entryX=0.5;entryY=0;entryDx=0;entryDy=0;" parent="1" source="Fn_SYdDXyTarmtpHNBiJ-97" target="Fn_SYdDXyTarmtpHNBiJ-152" edge="1">
          <mxGeometry relative="1" as="geometry" />
        </mxCell>
        <mxCell id="Fn_SYdDXyTarmtpHNBiJ-163" style="edgeStyle=orthogonalEdgeStyle;rounded=0;orthogonalLoop=1;jettySize=auto;html=1;exitX=1;exitY=0.5;exitDx=0;exitDy=0;entryX=0.5;entryY=0;entryDx=0;entryDy=0;" parent="1" edge="1">
          <mxGeometry relative="1" as="geometry">
            <mxPoint x="2059" y="342" as="sourcePoint" />
            <mxPoint x="2126.0000000000005" y="-150" as="targetPoint" />
            <Array as="points">
              <mxPoint x="2265" y="342" />
              <mxPoint x="2265" y="-271" />
              <mxPoint x="1994" y="-271" />
              <mxPoint x="1994" y="-240" />
              <mxPoint x="2126" y="-240" />
            </Array>
          </mxGeometry>
        </mxCell>
        <mxCell id="Fn_SYdDXyTarmtpHNBiJ-97" value="Model Operation" style="rounded=1;whiteSpace=wrap;html=1;fillColor=#dae8fc;strokeColor=#6c8ebf;fontSize=13;" parent="1" vertex="1">
          <mxGeometry x="1929" y="326" width="130" height="40" as="geometry" />
        </mxCell>
        <mxCell id="Fn_SYdDXyTarmtpHNBiJ-98" value="Model Tuning" style="rounded=1;whiteSpace=wrap;html=1;fillColor=#d5e8d4;strokeColor=#82b366;fontSize=13;" parent="1" vertex="1">
          <mxGeometry x="1829" y="151" width="130" height="40" as="geometry" />
        </mxCell>
        <mxCell id="Fn_SYdDXyTarmtpHNBiJ-99" value="Model Evaluation" style="rounded=1;whiteSpace=wrap;html=1;fillColor=#d5e8d4;strokeColor=#82b366;fontSize=13;" parent="1" vertex="1">
          <mxGeometry x="2039" y="84" width="130" height="40" as="geometry" />
        </mxCell>
        <mxCell id="Fn_SYdDXyTarmtpHNBiJ-100" value="Model Testing" style="rounded=1;whiteSpace=wrap;html=1;fillColor=#d5e8d4;strokeColor=#82b366;fontSize=13;" parent="1" vertex="1">
          <mxGeometry x="2039" y="151" width="130" height="40" as="geometry" />
        </mxCell>
        <mxCell id="Fn_SYdDXyTarmtpHNBiJ-123" style="edgeStyle=orthogonalEdgeStyle;rounded=0;orthogonalLoop=1;jettySize=auto;html=1;exitX=0.5;exitY=1;exitDx=0;exitDy=0;entryX=0.5;entryY=0;entryDx=0;entryDy=0;" parent="1" source="Fn_SYdDXyTarmtpHNBiJ-102" target="Fn_SYdDXyTarmtpHNBiJ-97" edge="1">
          <mxGeometry relative="1" as="geometry" />
        </mxCell>
        <mxCell id="Fn_SYdDXyTarmtpHNBiJ-102" value="Model Deployment" style="rounded=1;whiteSpace=wrap;html=1;fillColor=#dae8fc;strokeColor=#6c8ebf;fontSize=13;" parent="1" vertex="1">
          <mxGeometry x="1929" y="246" width="130" height="40" as="geometry" />
        </mxCell>
        <mxCell id="Fn_SYdDXyTarmtpHNBiJ-103" style="edgeStyle=orthogonalEdgeStyle;rounded=0;orthogonalLoop=1;jettySize=auto;html=1;entryX=0.5;entryY=0;entryDx=0;entryDy=0;" parent="1" source="Fn_SYdDXyTarmtpHNBiJ-104" target="Fn_SYdDXyTarmtpHNBiJ-117" edge="1">
          <mxGeometry relative="1" as="geometry">
            <mxPoint x="1889" y="487.9999999999998" as="sourcePoint" />
          </mxGeometry>
        </mxCell>
        <mxCell id="Fn_SYdDXyTarmtpHNBiJ-104" value="Data Drift" style="strokeWidth=1;html=1;shape=mxgraph.flowchart.decision;whiteSpace=wrap;fillColor=#f8cecc;strokeColor=#b85450;fontSize=13;" parent="1" vertex="1">
          <mxGeometry x="1834" y="434" width="110" height="47" as="geometry" />
        </mxCell>
        <mxCell id="Fn_SYdDXyTarmtpHNBiJ-131" style="edgeStyle=orthogonalEdgeStyle;rounded=0;orthogonalLoop=1;jettySize=auto;html=1;exitX=0.25;exitY=1;exitDx=0;exitDy=0;entryX=0;entryY=0.5;entryDx=0;entryDy=0;" parent="1" source="Fn_SYdDXyTarmtpHNBiJ-114" target="Fn_SYdDXyTarmtpHNBiJ-97" edge="1">
          <mxGeometry relative="1" as="geometry">
            <Array as="points">
              <mxPoint x="1852" y="725" />
              <mxPoint x="1852" y="740" />
              <mxPoint x="1764" y="740" />
              <mxPoint x="1764" y="346" />
            </Array>
          </mxGeometry>
        </mxCell>
        <mxCell id="Fn_SYdDXyTarmtpHNBiJ-132" style="edgeStyle=orthogonalEdgeStyle;rounded=0;orthogonalLoop=1;jettySize=auto;html=1;exitX=0.75;exitY=1;exitDx=0;exitDy=0;entryX=0;entryY=0.5;entryDx=0;entryDy=0;" parent="1" source="Fn_SYdDXyTarmtpHNBiJ-114" target="Fn_SYdDXyTarmtpHNBiJ-88" edge="1">
          <mxGeometry relative="1" as="geometry">
            <Array as="points">
              <mxPoint x="1922" y="760" />
              <mxPoint x="1731" y="760" />
              <mxPoint x="1731" y="126" />
            </Array>
          </mxGeometry>
        </mxCell>
        <mxCell id="Fn_SYdDXyTarmtpHNBiJ-162" style="edgeStyle=orthogonalEdgeStyle;rounded=0;orthogonalLoop=1;jettySize=auto;html=1;exitX=0.75;exitY=1;exitDx=0;exitDy=0;entryX=0.5;entryY=0;entryDx=0;entryDy=0;" parent="1" source="Fn_SYdDXyTarmtpHNBiJ-114" target="Fn_SYdDXyTarmtpHNBiJ-135" edge="1">
          <mxGeometry relative="1" as="geometry">
            <Array as="points">
              <mxPoint x="1921" y="760" />
              <mxPoint x="1731" y="760" />
              <mxPoint x="1731" y="-271" />
              <mxPoint x="1994" y="-271" />
              <mxPoint x="1994" y="-240" />
              <mxPoint x="1889" y="-240" />
            </Array>
          </mxGeometry>
        </mxCell>
        <mxCell id="Fn_SYdDXyTarmtpHNBiJ-114" value="Visualization of Distribution" style="rounded=1;whiteSpace=wrap;html=1;fillColor=#dae8fc;strokeColor=#6c8ebf;fontSize=13;" parent="1" vertex="1">
          <mxGeometry x="1824" y="685" width="130" height="40" as="geometry" />
        </mxCell>
        <mxCell id="Fn_SYdDXyTarmtpHNBiJ-125" style="edgeStyle=orthogonalEdgeStyle;rounded=0;orthogonalLoop=1;jettySize=auto;html=1;exitX=0.5;exitY=1;exitDx=0;exitDy=0;entryX=0.5;entryY=0;entryDx=0;entryDy=0;" parent="1" source="Fn_SYdDXyTarmtpHNBiJ-117" target="Fn_SYdDXyTarmtpHNBiJ-119" edge="1">
          <mxGeometry relative="1" as="geometry" />
        </mxCell>
        <mxCell id="Fn_SYdDXyTarmtpHNBiJ-117" value="Data Quality Checking" style="rounded=1;whiteSpace=wrap;html=1;fillColor=#dae8fc;strokeColor=#6c8ebf;fontSize=13;" parent="1" vertex="1">
          <mxGeometry x="1819" y="525" width="140" height="40" as="geometry" />
        </mxCell>
        <mxCell id="Fn_SYdDXyTarmtpHNBiJ-126" style="edgeStyle=orthogonalEdgeStyle;rounded=0;orthogonalLoop=1;jettySize=auto;html=1;exitX=0.5;exitY=1;exitDx=0;exitDy=0;entryX=0.5;entryY=0;entryDx=0;entryDy=0;" parent="1" source="Fn_SYdDXyTarmtpHNBiJ-119" target="Fn_SYdDXyTarmtpHNBiJ-114" edge="1">
          <mxGeometry relative="1" as="geometry" />
        </mxCell>
        <mxCell id="Fn_SYdDXyTarmtpHNBiJ-119" value="Data Repairment" style="rounded=1;whiteSpace=wrap;html=1;fillColor=#dae8fc;strokeColor=#6c8ebf;fontSize=13;" parent="1" vertex="1">
          <mxGeometry x="1824" y="605" width="130" height="40" as="geometry" />
        </mxCell>
        <mxCell id="Fn_SYdDXyTarmtpHNBiJ-133" value="① No Action" style="edgeLabel;html=1;align=center;verticalAlign=middle;resizable=0;points=[];" parent="1" vertex="1" connectable="0">
          <mxGeometry x="1110" y="263" as="geometry">
            <mxPoint x="727" y="81" as="offset" />
          </mxGeometry>
        </mxCell>
        <mxCell id="Fn_SYdDXyTarmtpHNBiJ-134" value="&amp;nbsp;②&amp;nbsp;Retrain&amp;nbsp;" style="edgeLabel;html=1;align=center;verticalAlign=middle;resizable=0;points=[];fontSize=13;" parent="1" vertex="1" connectable="0">
          <mxGeometry x="585.9966666666666" y="390" as="geometry">
            <mxPoint x="1138" y="-136" as="offset" />
          </mxGeometry>
        </mxCell>
        <mxCell id="Fn_SYdDXyTarmtpHNBiJ-145" style="edgeStyle=orthogonalEdgeStyle;rounded=0;orthogonalLoop=1;jettySize=auto;html=1;exitX=0.5;exitY=1;exitDx=0;exitDy=0;entryX=0.5;entryY=0;entryDx=0;entryDy=0;" parent="1" source="Fn_SYdDXyTarmtpHNBiJ-135" target="Fn_SYdDXyTarmtpHNBiJ-92" edge="1">
          <mxGeometry relative="1" as="geometry">
            <Array as="points">
              <mxPoint x="1888" y="27" />
              <mxPoint x="1994" y="27" />
            </Array>
          </mxGeometry>
        </mxCell>
        <mxCell id="Fn_SYdDXyTarmtpHNBiJ-135" value="" style="rounded=0;whiteSpace=wrap;html=1;dashed=1;fillColor=#dae8fc;strokeColor=#6c8ebf;fontSize=13;" parent="1" vertex="1">
          <mxGeometry x="1789" y="-214" width="199" height="227" as="geometry" />
        </mxCell>
        <mxCell id="Fn_SYdDXyTarmtpHNBiJ-139" value="Data Processing" style="text;html=1;strokeColor=none;fillColor=none;align=center;verticalAlign=middle;whiteSpace=wrap;rounded=0;fontSize=13;" parent="1" vertex="1">
          <mxGeometry x="1799" y="-204" width="180" height="30" as="geometry" />
        </mxCell>
        <mxCell id="Fn_SYdDXyTarmtpHNBiJ-148" style="edgeStyle=orthogonalEdgeStyle;rounded=0;orthogonalLoop=1;jettySize=auto;html=1;exitX=0.5;exitY=1;exitDx=0;exitDy=0;" parent="1" source="Fn_SYdDXyTarmtpHNBiJ-141" target="Fn_SYdDXyTarmtpHNBiJ-142" edge="1">
          <mxGeometry relative="1" as="geometry" />
        </mxCell>
        <mxCell id="Fn_SYdDXyTarmtpHNBiJ-141" value="Data Visualization" style="rounded=1;whiteSpace=wrap;html=1;fillColor=#d5e8d4;strokeColor=#82b366;fontSize=13;" parent="1" vertex="1">
          <mxGeometry x="1824" y="-162.5" width="130" height="40" as="geometry" />
        </mxCell>
        <mxCell id="Fn_SYdDXyTarmtpHNBiJ-149" style="edgeStyle=orthogonalEdgeStyle;rounded=0;orthogonalLoop=1;jettySize=auto;html=1;exitX=0.5;exitY=1;exitDx=0;exitDy=0;entryX=0.5;entryY=0;entryDx=0;entryDy=0;" parent="1" source="Fn_SYdDXyTarmtpHNBiJ-142" target="Fn_SYdDXyTarmtpHNBiJ-147" edge="1">
          <mxGeometry relative="1" as="geometry" />
        </mxCell>
        <mxCell id="Fn_SYdDXyTarmtpHNBiJ-142" value="Data Analysis" style="rounded=1;whiteSpace=wrap;html=1;fillColor=#d5e8d4;strokeColor=#82b366;fontSize=13;" parent="1" vertex="1">
          <mxGeometry x="1824" y="-100.5" width="130" height="40" as="geometry" />
        </mxCell>
        <mxCell id="Fn_SYdDXyTarmtpHNBiJ-155" style="edgeStyle=orthogonalEdgeStyle;rounded=0;orthogonalLoop=1;jettySize=auto;html=1;exitX=0.5;exitY=1;exitDx=0;exitDy=0;entryX=0.5;entryY=0;entryDx=0;entryDy=0;" parent="1" source="Fn_SYdDXyTarmtpHNBiJ-146" target="Fn_SYdDXyTarmtpHNBiJ-135" edge="1">
          <mxGeometry relative="1" as="geometry">
            <Array as="points">
              <mxPoint x="1994" y="-240" />
              <mxPoint x="1888" y="-240" />
            </Array>
          </mxGeometry>
        </mxCell>
        <mxCell id="Fn_SYdDXyTarmtpHNBiJ-159" style="edgeStyle=orthogonalEdgeStyle;rounded=0;orthogonalLoop=1;jettySize=auto;html=1;exitX=0.5;exitY=1;exitDx=0;exitDy=0;entryX=0.5;entryY=0;entryDx=0;entryDy=0;" parent="1" source="Fn_SYdDXyTarmtpHNBiJ-146" target="Fn_SYdDXyTarmtpHNBiJ-157" edge="1">
          <mxGeometry relative="1" as="geometry">
            <Array as="points">
              <mxPoint x="1994" y="-240" />
              <mxPoint x="2126" y="-240" />
            </Array>
          </mxGeometry>
        </mxCell>
        <mxCell id="Fn_SYdDXyTarmtpHNBiJ-146" value="Objective Scoping" style="rounded=1;whiteSpace=wrap;html=1;fillColor=#dae8fc;strokeColor=#6c8ebf;fontSize=13;" parent="1" vertex="1">
          <mxGeometry x="1929" y="-321" width="130" height="40" as="geometry" />
        </mxCell>
        <mxCell id="Fn_SYdDXyTarmtpHNBiJ-147" value="Data Augmentation" style="rounded=1;whiteSpace=wrap;html=1;fillColor=#d5e8d4;strokeColor=#82b366;fontSize=13;" parent="1" vertex="1">
          <mxGeometry x="1824" y="-39" width="130" height="40" as="geometry" />
        </mxCell>
        <mxCell id="Fn_SYdDXyTarmtpHNBiJ-151" style="edgeStyle=orthogonalEdgeStyle;rounded=0;orthogonalLoop=1;jettySize=auto;html=1;exitX=0.5;exitY=1;exitDx=0;exitDy=0;exitPerimeter=0;entryX=1;entryY=0.5;entryDx=0;entryDy=0;" parent="1" source="Fn_SYdDXyTarmtpHNBiJ-106" target="Fn_SYdDXyTarmtpHNBiJ-88" edge="1">
          <mxGeometry relative="1" as="geometry">
            <Array as="points">
              <mxPoint x="2107" y="568" />
              <mxPoint x="2265" y="568" />
              <mxPoint x="2265" y="125" />
            </Array>
          </mxGeometry>
        </mxCell>
        <mxCell id="Fn_SYdDXyTarmtpHNBiJ-106" value="Concept Drift" style="strokeWidth=1;html=1;shape=mxgraph.flowchart.decision;whiteSpace=wrap;fillColor=#f8cecc;strokeColor=#b85450;fontSize=13;" parent="1" vertex="1">
          <mxGeometry x="2042" y="434" width="130" height="47" as="geometry" />
        </mxCell>
        <mxCell id="Fn_SYdDXyTarmtpHNBiJ-154" value="Model Drift" style="text;html=1;strokeColor=none;fillColor=none;align=center;verticalAlign=middle;whiteSpace=wrap;rounded=0;fontSize=13;" parent="1" vertex="1">
          <mxGeometry x="1902" y="410" width="180" height="30" as="geometry" />
        </mxCell>
        <mxCell id="Fn_SYdDXyTarmtpHNBiJ-161" style="edgeStyle=orthogonalEdgeStyle;rounded=0;orthogonalLoop=1;jettySize=auto;html=1;exitX=0.5;exitY=1;exitDx=0;exitDy=0;entryX=0.5;entryY=0;entryDx=0;entryDy=0;" parent="1" source="Fn_SYdDXyTarmtpHNBiJ-157" target="Fn_SYdDXyTarmtpHNBiJ-92" edge="1">
          <mxGeometry relative="1" as="geometry">
            <Array as="points">
              <mxPoint x="2126" y="27" />
              <mxPoint x="1994" y="27" />
            </Array>
          </mxGeometry>
        </mxCell>
        <mxCell id="Fn_SYdDXyTarmtpHNBiJ-157" value="Framework and Algorithm Selection" style="rounded=1;whiteSpace=wrap;html=1;fillColor=#dae8fc;strokeColor=#6c8ebf;fontSize=13;" parent="1" vertex="1">
          <mxGeometry x="2042" y="-146" width="168" height="53.5" as="geometry" />
        </mxCell>
        <mxCell id="Fn_SYdDXyTarmtpHNBiJ-115" value="&lt;span style=&quot;color: rgb(0, 0, 0); font-family: Helvetica; font-size: 13px; font-style: normal; font-variant-ligatures: normal; font-variant-caps: normal; font-weight: 400; letter-spacing: normal; orphans: 2; text-align: center; text-indent: 0px; text-transform: none; widows: 2; word-spacing: 0px; -webkit-text-stroke-width: 0px; background-color: rgb(255, 255, 255); text-decoration-thickness: initial; text-decoration-style: initial; text-decoration-color: initial; float: none; display: inline !important;&quot;&gt;&amp;nbsp;③ Reconstruct&amp;nbsp;&lt;/span&gt;" style="text;whiteSpace=wrap;html=1;" parent="1" vertex="1">
          <mxGeometry x="2207.0000390625" y="216.99998046874995" width="121" height="38" as="geometry" />
        </mxCell>
        <mxCell id="MFeed4d9ZoU8dtEDPjQN-1" value="&lt;font style=&quot;font-size: 15px;&quot;&gt;Data&lt;/font&gt;" style="swimlane;whiteSpace=wrap;html=1;startSize=45;fontSize=15;strokeColor=#82b366;fillColor=#C5E8D0;swimlaneFillColor=#EBFFF5;" vertex="1" parent="1">
          <mxGeometry x="2649" y="-283" width="407" height="1199" as="geometry">
            <mxRectangle x="2566" y="-283" width="68" height="45" as="alternateBounds" />
          </mxGeometry>
        </mxCell>
        <mxCell id="MFeed4d9ZoU8dtEDPjQN-39" value="" style="rounded=0;whiteSpace=wrap;html=1;dashed=1;fontSize=13;fillColor=#ABEDCB;strokeColor=none;" vertex="1" parent="MFeed4d9ZoU8dtEDPjQN-1">
          <mxGeometry x="55" y="1024" width="311" height="96" as="geometry" />
        </mxCell>
        <mxCell id="MFeed4d9ZoU8dtEDPjQN-40" value="Model Drift" style="text;html=1;strokeColor=none;fillColor=none;align=center;verticalAlign=middle;whiteSpace=wrap;rounded=0;fontSize=13;" vertex="1" parent="MFeed4d9ZoU8dtEDPjQN-1">
          <mxGeometry x="122" y="1023" width="180" height="30" as="geometry" />
        </mxCell>
        <mxCell id="MFeed4d9ZoU8dtEDPjQN-109" style="edgeStyle=orthogonalEdgeStyle;rounded=0;orthogonalLoop=1;jettySize=auto;html=1;exitX=0.5;exitY=1;exitDx=0;exitDy=0;entryX=0;entryY=0.5;entryDx=0;entryDy=0;" edge="1" parent="MFeed4d9ZoU8dtEDPjQN-1" source="MFeed4d9ZoU8dtEDPjQN-41" target="MFeed4d9ZoU8dtEDPjQN-100">
          <mxGeometry relative="1" as="geometry">
            <Array as="points">
              <mxPoint x="134" y="1154" />
              <mxPoint x="20" y="1154" />
              <mxPoint x="20" y="289" />
            </Array>
          </mxGeometry>
        </mxCell>
        <mxCell id="MFeed4d9ZoU8dtEDPjQN-41" value="Data Drift" style="rounded=1;whiteSpace=wrap;html=1;fontSize=13;" vertex="1" parent="MFeed4d9ZoU8dtEDPjQN-1">
          <mxGeometry x="69" y="1055" width="130" height="40" as="geometry" />
        </mxCell>
        <mxCell id="MFeed4d9ZoU8dtEDPjQN-48" value="Concept Drift" style="rounded=1;whiteSpace=wrap;html=1;fontSize=13;" vertex="1" parent="MFeed4d9ZoU8dtEDPjQN-1">
          <mxGeometry x="216" y="1055" width="130" height="40" as="geometry" />
        </mxCell>
        <mxCell id="MFeed4d9ZoU8dtEDPjQN-72" value="&amp;nbsp;②&amp;nbsp;Retrain&amp;nbsp;" style="text;html=1;strokeColor=none;fillColor=none;align=center;verticalAlign=middle;whiteSpace=wrap;rounded=0;" vertex="1" parent="MFeed4d9ZoU8dtEDPjQN-1">
          <mxGeometry x="247" y="541" width="96" height="30" as="geometry" />
        </mxCell>
        <mxCell id="MFeed4d9ZoU8dtEDPjQN-55" value="&amp;nbsp;③ Reconstruct&amp;nbsp;" style="text;html=1;strokeColor=none;fillColor=none;align=center;verticalAlign=middle;whiteSpace=wrap;rounded=0;" vertex="1" parent="MFeed4d9ZoU8dtEDPjQN-1">
          <mxGeometry x="298" y="1130" width="96" height="30" as="geometry" />
        </mxCell>
        <mxCell id="MFeed4d9ZoU8dtEDPjQN-94" value="" style="rounded=0;whiteSpace=wrap;html=1;dashed=1;fontSize=13;fillColor=#ABEDCB;strokeColor=none;" vertex="1" parent="MFeed4d9ZoU8dtEDPjQN-1">
          <mxGeometry x="61" y="384" width="311" height="141" as="geometry" />
        </mxCell>
        <mxCell id="MFeed4d9ZoU8dtEDPjQN-95" value="Data Preprocessing" style="text;html=1;strokeColor=none;fillColor=none;align=center;verticalAlign=middle;whiteSpace=wrap;rounded=0;fontSize=13;" vertex="1" parent="MFeed4d9ZoU8dtEDPjQN-1">
          <mxGeometry x="128" y="383" width="180" height="30" as="geometry" />
        </mxCell>
        <mxCell id="MFeed4d9ZoU8dtEDPjQN-96" value="Data Augmentation" style="rounded=1;whiteSpace=wrap;html=1;fontSize=13;" vertex="1" parent="MFeed4d9ZoU8dtEDPjQN-1">
          <mxGeometry x="77" y="415" width="130" height="40" as="geometry" />
        </mxCell>
        <mxCell id="MFeed4d9ZoU8dtEDPjQN-97" value="Data Cleaning" style="rounded=1;whiteSpace=wrap;html=1;fontSize=13;" vertex="1" parent="MFeed4d9ZoU8dtEDPjQN-1">
          <mxGeometry x="224" y="415" width="130" height="40" as="geometry" />
        </mxCell>
        <mxCell id="MFeed4d9ZoU8dtEDPjQN-98" value="Data Integration" style="rounded=1;whiteSpace=wrap;html=1;fontSize=13;" vertex="1" parent="MFeed4d9ZoU8dtEDPjQN-1">
          <mxGeometry x="77" y="471" width="130" height="40" as="geometry" />
        </mxCell>
        <mxCell id="MFeed4d9ZoU8dtEDPjQN-99" value="Data Transformation" style="rounded=1;whiteSpace=wrap;html=1;fontSize=13;" vertex="1" parent="MFeed4d9ZoU8dtEDPjQN-1">
          <mxGeometry x="224" y="471" width="130" height="40" as="geometry" />
        </mxCell>
        <mxCell id="MFeed4d9ZoU8dtEDPjQN-107" style="edgeStyle=orthogonalEdgeStyle;rounded=0;orthogonalLoop=1;jettySize=auto;html=1;exitX=0.5;exitY=1;exitDx=0;exitDy=0;entryX=0.5;entryY=0;entryDx=0;entryDy=0;" edge="1" parent="MFeed4d9ZoU8dtEDPjQN-1" source="MFeed4d9ZoU8dtEDPjQN-100" target="MFeed4d9ZoU8dtEDPjQN-95">
          <mxGeometry relative="1" as="geometry" />
        </mxCell>
        <mxCell id="MFeed4d9ZoU8dtEDPjQN-100" value="" style="rounded=0;whiteSpace=wrap;html=1;dashed=1;fontSize=13;fillColor=#ABEDCB;strokeColor=none;" vertex="1" parent="MFeed4d9ZoU8dtEDPjQN-1">
          <mxGeometry x="63" y="218" width="311" height="141" as="geometry" />
        </mxCell>
        <mxCell id="MFeed4d9ZoU8dtEDPjQN-101" value="Data Monitoring" style="text;html=1;strokeColor=none;fillColor=none;align=center;verticalAlign=middle;whiteSpace=wrap;rounded=0;fontSize=13;" vertex="1" parent="MFeed4d9ZoU8dtEDPjQN-1">
          <mxGeometry x="126" y="217" width="180" height="30" as="geometry" />
        </mxCell>
        <mxCell id="MFeed4d9ZoU8dtEDPjQN-102" value="Data Visualization" style="rounded=1;whiteSpace=wrap;html=1;fontSize=13;" vertex="1" parent="MFeed4d9ZoU8dtEDPjQN-1">
          <mxGeometry x="149.5" y="254" width="130" height="40" as="geometry" />
        </mxCell>
        <mxCell id="MFeed4d9ZoU8dtEDPjQN-103" value="Data Analysis" style="rounded=1;whiteSpace=wrap;html=1;fontSize=13;" vertex="1" parent="MFeed4d9ZoU8dtEDPjQN-1">
          <mxGeometry x="224" y="305" width="130" height="40" as="geometry" />
        </mxCell>
        <mxCell id="MFeed4d9ZoU8dtEDPjQN-104" value="Data &lt;br&gt;Quality Checking" style="rounded=1;whiteSpace=wrap;html=1;fontSize=13;" vertex="1" parent="MFeed4d9ZoU8dtEDPjQN-1">
          <mxGeometry x="76" y="305" width="130" height="40" as="geometry" />
        </mxCell>
        <mxCell id="MFeed4d9ZoU8dtEDPjQN-3" value="&lt;font style=&quot;font-size: 15px;&quot;&gt;Model&lt;/font&gt;" style="swimlane;whiteSpace=wrap;html=1;startSize=45;fontSize=15;fillColor=#dae8fc;strokeColor=#6c8ebf;swimlaneFillColor=#E6FFFF;" vertex="1" parent="1">
          <mxGeometry x="3361" y="-283" width="257" height="1199" as="geometry">
            <mxRectangle x="3361" y="-283" width="78" height="45" as="alternateBounds" />
          </mxGeometry>
        </mxCell>
        <mxCell id="MFeed4d9ZoU8dtEDPjQN-38" style="edgeStyle=orthogonalEdgeStyle;rounded=0;orthogonalLoop=1;jettySize=auto;html=1;exitX=0.5;exitY=1;exitDx=0;exitDy=0;" edge="1" parent="MFeed4d9ZoU8dtEDPjQN-3" source="MFeed4d9ZoU8dtEDPjQN-37" target="MFeed4d9ZoU8dtEDPjQN-13">
          <mxGeometry relative="1" as="geometry" />
        </mxCell>
        <mxCell id="MFeed4d9ZoU8dtEDPjQN-37" value="" style="ellipse;whiteSpace=wrap;html=1;aspect=fixed;fillColor=#030303;" vertex="1" parent="MFeed4d9ZoU8dtEDPjQN-3">
          <mxGeometry x="105" y="61" width="35" height="35" as="geometry" />
        </mxCell>
        <mxCell id="MFeed4d9ZoU8dtEDPjQN-13" value="Objective Scoping" style="rounded=1;whiteSpace=wrap;html=1;fontSize=13;" vertex="1" parent="MFeed4d9ZoU8dtEDPjQN-3">
          <mxGeometry x="57.5" y="120" width="130" height="40" as="geometry" />
        </mxCell>
        <mxCell id="MFeed4d9ZoU8dtEDPjQN-32" style="edgeStyle=orthogonalEdgeStyle;rounded=0;orthogonalLoop=1;jettySize=auto;html=1;exitX=0.5;exitY=1;exitDx=0;exitDy=0;entryX=0.5;entryY=0;entryDx=0;entryDy=0;" edge="1" parent="MFeed4d9ZoU8dtEDPjQN-3" source="MFeed4d9ZoU8dtEDPjQN-18" target="MFeed4d9ZoU8dtEDPjQN-30">
          <mxGeometry relative="1" as="geometry" />
        </mxCell>
        <mxCell id="MFeed4d9ZoU8dtEDPjQN-18" value="" style="rounded=0;whiteSpace=wrap;html=1;dashed=1;fontSize=13;fillColor=#AEDBF2;strokeColor=none;" vertex="1" parent="MFeed4d9ZoU8dtEDPjQN-3">
          <mxGeometry x="28" y="562" width="199" height="274" as="geometry" />
        </mxCell>
        <mxCell id="MFeed4d9ZoU8dtEDPjQN-19" value="Model Generation" style="text;html=1;strokeColor=none;fillColor=none;align=center;verticalAlign=middle;whiteSpace=wrap;rounded=0;fontSize=13;" vertex="1" parent="MFeed4d9ZoU8dtEDPjQN-3">
          <mxGeometry x="38" y="564" width="180" height="30" as="geometry" />
        </mxCell>
        <mxCell id="MFeed4d9ZoU8dtEDPjQN-20" value="Model Training" style="rounded=1;whiteSpace=wrap;html=1;fontSize=13;" vertex="1" parent="MFeed4d9ZoU8dtEDPjQN-3">
          <mxGeometry x="63" y="600.5" width="130" height="40" as="geometry" />
        </mxCell>
        <mxCell id="MFeed4d9ZoU8dtEDPjQN-22" style="edgeStyle=orthogonalEdgeStyle;rounded=0;orthogonalLoop=1;jettySize=auto;html=1;exitX=0.5;exitY=1;exitDx=0;exitDy=0;" edge="1" parent="MFeed4d9ZoU8dtEDPjQN-3" source="MFeed4d9ZoU8dtEDPjQN-20" target="MFeed4d9ZoU8dtEDPjQN-21">
          <mxGeometry relative="1" as="geometry" />
        </mxCell>
        <mxCell id="MFeed4d9ZoU8dtEDPjQN-29" style="edgeStyle=orthogonalEdgeStyle;rounded=0;orthogonalLoop=1;jettySize=auto;html=1;exitX=1;exitY=0.5;exitDx=0;exitDy=0;entryX=1;entryY=0.5;entryDx=0;entryDy=0;" edge="1" parent="MFeed4d9ZoU8dtEDPjQN-3" source="MFeed4d9ZoU8dtEDPjQN-25" target="MFeed4d9ZoU8dtEDPjQN-20">
          <mxGeometry relative="1" as="geometry" />
        </mxCell>
        <mxCell id="MFeed4d9ZoU8dtEDPjQN-21" value="Model Evaluation" style="rounded=1;whiteSpace=wrap;html=1;fontSize=13;" vertex="1" parent="MFeed4d9ZoU8dtEDPjQN-3">
          <mxGeometry x="63" y="662.5" width="130" height="40" as="geometry" />
        </mxCell>
        <mxCell id="MFeed4d9ZoU8dtEDPjQN-24" style="edgeStyle=orthogonalEdgeStyle;rounded=0;orthogonalLoop=1;jettySize=auto;html=1;exitX=0.5;exitY=1;exitDx=0;exitDy=0;entryX=0.5;entryY=0;entryDx=0;entryDy=0;" edge="1" parent="MFeed4d9ZoU8dtEDPjQN-3" source="MFeed4d9ZoU8dtEDPjQN-21" target="MFeed4d9ZoU8dtEDPjQN-23">
          <mxGeometry relative="1" as="geometry" />
        </mxCell>
        <mxCell id="MFeed4d9ZoU8dtEDPjQN-26" style="edgeStyle=orthogonalEdgeStyle;rounded=0;orthogonalLoop=1;jettySize=auto;html=1;exitX=0.5;exitY=1;exitDx=0;exitDy=0;entryX=0.5;entryY=0;entryDx=0;entryDy=0;" edge="1" parent="MFeed4d9ZoU8dtEDPjQN-3" source="MFeed4d9ZoU8dtEDPjQN-23" target="MFeed4d9ZoU8dtEDPjQN-25">
          <mxGeometry relative="1" as="geometry" />
        </mxCell>
        <mxCell id="MFeed4d9ZoU8dtEDPjQN-23" value="&amp;nbsp;Model Testing" style="rounded=1;whiteSpace=wrap;html=1;fontSize=13;" vertex="1" parent="MFeed4d9ZoU8dtEDPjQN-3">
          <mxGeometry x="63" y="724" width="130" height="40" as="geometry" />
        </mxCell>
        <mxCell id="MFeed4d9ZoU8dtEDPjQN-25" value="&amp;nbsp;Model Tuning" style="rounded=1;whiteSpace=wrap;html=1;fontSize=13;" vertex="1" parent="MFeed4d9ZoU8dtEDPjQN-3">
          <mxGeometry x="63" y="786" width="130" height="40" as="geometry" />
        </mxCell>
        <mxCell id="MFeed4d9ZoU8dtEDPjQN-34" style="edgeStyle=orthogonalEdgeStyle;rounded=0;orthogonalLoop=1;jettySize=auto;html=1;exitX=0.5;exitY=1;exitDx=0;exitDy=0;entryX=0.5;entryY=0;entryDx=0;entryDy=0;" edge="1" parent="MFeed4d9ZoU8dtEDPjQN-3" source="MFeed4d9ZoU8dtEDPjQN-30" target="MFeed4d9ZoU8dtEDPjQN-33">
          <mxGeometry relative="1" as="geometry" />
        </mxCell>
        <mxCell id="MFeed4d9ZoU8dtEDPjQN-30" value="Model Deployment" style="rounded=1;whiteSpace=wrap;html=1;fontSize=13;" vertex="1" parent="MFeed4d9ZoU8dtEDPjQN-3">
          <mxGeometry x="63" y="864" width="130" height="40" as="geometry" />
        </mxCell>
        <mxCell id="MFeed4d9ZoU8dtEDPjQN-33" value="Model Operation" style="rounded=1;whiteSpace=wrap;html=1;fontSize=13;" vertex="1" parent="MFeed4d9ZoU8dtEDPjQN-3">
          <mxGeometry x="63" y="932" width="130" height="40" as="geometry" />
        </mxCell>
        <mxCell id="MFeed4d9ZoU8dtEDPjQN-84" style="edgeStyle=orthogonalEdgeStyle;rounded=0;orthogonalLoop=1;jettySize=auto;html=1;exitX=0;exitY=0.5;exitDx=0;exitDy=0;" edge="1" parent="MFeed4d9ZoU8dtEDPjQN-3" source="MFeed4d9ZoU8dtEDPjQN-33">
          <mxGeometry relative="1" as="geometry">
            <mxPoint x="28" y="652" as="targetPoint" />
            <Array as="points">
              <mxPoint x="63" y="941" />
              <mxPoint x="-152" y="941" />
              <mxPoint x="-152" y="652" />
              <mxPoint x="28" y="652" />
            </Array>
          </mxGeometry>
        </mxCell>
        <mxCell id="MFeed4d9ZoU8dtEDPjQN-31" value="&lt;font style=&quot;font-size: 15px;&quot;&gt;&lt;b&gt;AI Component Testing Process&lt;/b&gt;&lt;/font&gt;" style="rounded=0;whiteSpace=wrap;html=1;" vertex="1" parent="1">
          <mxGeometry x="2649" y="-329" width="970" height="46" as="geometry" />
        </mxCell>
        <mxCell id="MFeed4d9ZoU8dtEDPjQN-15" style="edgeStyle=orthogonalEdgeStyle;rounded=0;orthogonalLoop=1;jettySize=auto;html=1;exitX=0.5;exitY=1;exitDx=0;exitDy=0;" edge="1" parent="1" source="MFeed4d9ZoU8dtEDPjQN-13">
          <mxGeometry relative="1" as="geometry">
            <mxPoint x="2865.999999999999" y="-66.5" as="targetPoint" />
            <Array as="points">
              <mxPoint x="3484" y="-98" />
              <mxPoint x="2866" y="-98" />
            </Array>
          </mxGeometry>
        </mxCell>
        <mxCell id="MFeed4d9ZoU8dtEDPjQN-49" style="edgeStyle=orthogonalEdgeStyle;rounded=0;orthogonalLoop=1;jettySize=auto;html=1;exitX=0.5;exitY=1;exitDx=0;exitDy=0;entryX=0.5;entryY=0;entryDx=0;entryDy=0;" edge="1" parent="1" source="MFeed4d9ZoU8dtEDPjQN-33" target="MFeed4d9ZoU8dtEDPjQN-40">
          <mxGeometry relative="1" as="geometry" />
        </mxCell>
        <mxCell id="MFeed4d9ZoU8dtEDPjQN-50" style="edgeStyle=orthogonalEdgeStyle;rounded=0;orthogonalLoop=1;jettySize=auto;html=1;exitX=0;exitY=0.5;exitDx=0;exitDy=0;entryX=0.5;entryY=0;entryDx=0;entryDy=0;jumpStyle=arc;" edge="1" parent="1" source="MFeed4d9ZoU8dtEDPjQN-21" target="MFeed4d9ZoU8dtEDPjQN-41">
          <mxGeometry relative="1" as="geometry" />
        </mxCell>
        <mxCell id="MFeed4d9ZoU8dtEDPjQN-82" style="edgeStyle=orthogonalEdgeStyle;rounded=0;orthogonalLoop=1;jettySize=auto;html=1;exitX=0;exitY=0.5;exitDx=0;exitDy=0;entryX=0.5;entryY=1;entryDx=0;entryDy=0;" edge="1" parent="1" source="MFeed4d9ZoU8dtEDPjQN-33" target="MFeed4d9ZoU8dtEDPjQN-16">
          <mxGeometry relative="1" as="geometry">
            <mxPoint x="3209" y="62" as="targetPoint" />
            <Array as="points">
              <mxPoint x="3209" y="658" />
            </Array>
          </mxGeometry>
        </mxCell>
        <mxCell id="MFeed4d9ZoU8dtEDPjQN-28" style="edgeStyle=orthogonalEdgeStyle;rounded=0;orthogonalLoop=1;jettySize=auto;html=1;exitX=1;exitY=0.5;exitDx=0;exitDy=0;jumpStyle=arc;" edge="1" parent="1" source="MFeed4d9ZoU8dtEDPjQN-16" target="MFeed4d9ZoU8dtEDPjQN-19">
          <mxGeometry relative="1" as="geometry">
            <Array as="points">
              <mxPoint x="3489" y="86" />
            </Array>
          </mxGeometry>
        </mxCell>
        <mxCell id="MFeed4d9ZoU8dtEDPjQN-53" style="edgeStyle=orthogonalEdgeStyle;rounded=0;orthogonalLoop=1;jettySize=auto;html=1;exitX=0.5;exitY=1;exitDx=0;exitDy=0;jumpStyle=arc;entryX=-0.002;entryY=0.193;entryDx=0;entryDy=0;entryPerimeter=0;" edge="1" parent="1" source="MFeed4d9ZoU8dtEDPjQN-48" target="MFeed4d9ZoU8dtEDPjQN-18">
          <mxGeometry relative="1" as="geometry">
            <mxPoint x="3388" y="357" as="targetPoint" />
            <Array as="points">
              <mxPoint x="2930" y="872" />
              <mxPoint x="3139" y="872" />
              <mxPoint x="3139" y="332" />
            </Array>
          </mxGeometry>
        </mxCell>
        <mxCell id="MFeed4d9ZoU8dtEDPjQN-54" style="edgeStyle=orthogonalEdgeStyle;rounded=0;orthogonalLoop=1;jettySize=auto;html=1;exitX=0.5;exitY=1;exitDx=0;exitDy=0;entryX=0;entryY=0.5;entryDx=0;entryDy=0;jumpStyle=arc;" edge="1" parent="1" source="MFeed4d9ZoU8dtEDPjQN-48" target="MFeed4d9ZoU8dtEDPjQN-16">
          <mxGeometry relative="1" as="geometry">
            <Array as="points">
              <mxPoint x="2930" y="872" />
              <mxPoint x="3074" y="872" />
              <mxPoint x="3074" y="86" />
            </Array>
          </mxGeometry>
        </mxCell>
        <mxCell id="MFeed4d9ZoU8dtEDPjQN-87" value="" style="rounded=0;whiteSpace=wrap;html=1;dashed=1;fontSize=13;fillColor=none;" vertex="1" parent="1">
          <mxGeometry x="2097" y="1181" width="311" height="87" as="geometry" />
        </mxCell>
        <mxCell id="MFeed4d9ZoU8dtEDPjQN-89" value="允许工业pipeline上的数据做比对分析&lt;br&gt;&lt;br&gt;Data Monitoring包含Data Quality Checking" style="text;html=1;strokeColor=none;fillColor=none;align=center;verticalAlign=middle;whiteSpace=wrap;rounded=0;" vertex="1" parent="1">
          <mxGeometry x="2191" y="822" width="271" height="48" as="geometry" />
        </mxCell>
        <mxCell id="MFeed4d9ZoU8dtEDPjQN-91" style="edgeStyle=orthogonalEdgeStyle;rounded=0;orthogonalLoop=1;jettySize=auto;html=1;exitX=0.5;exitY=1;exitDx=0;exitDy=0;entryX=0.5;entryY=0;entryDx=0;entryDy=0;" edge="1" parent="1" source="MFeed4d9ZoU8dtEDPjQN-13" target="MFeed4d9ZoU8dtEDPjQN-16">
          <mxGeometry relative="1" as="geometry">
            <Array as="points">
              <mxPoint x="3484" y="-98" />
              <mxPoint x="3211" y="-98" />
            </Array>
          </mxGeometry>
        </mxCell>
        <mxCell id="MFeed4d9ZoU8dtEDPjQN-106" style="edgeStyle=orthogonalEdgeStyle;rounded=0;orthogonalLoop=1;jettySize=auto;html=1;exitX=0.5;exitY=1;exitDx=0;exitDy=0;entryX=0.5;entryY=0;entryDx=0;entryDy=0;" edge="1" parent="1" source="MFeed4d9ZoU8dtEDPjQN-94" target="MFeed4d9ZoU8dtEDPjQN-19">
          <mxGeometry relative="1" as="geometry" />
        </mxCell>
        <mxCell id="MFeed4d9ZoU8dtEDPjQN-108" style="edgeStyle=orthogonalEdgeStyle;rounded=0;orthogonalLoop=1;jettySize=auto;html=1;exitX=1;exitY=0.5;exitDx=0;exitDy=0;entryX=0.75;entryY=0;entryDx=0;entryDy=0;dashed=1;dashPattern=8 8;" edge="1" parent="1" source="MFeed4d9ZoU8dtEDPjQN-100" target="MFeed4d9ZoU8dtEDPjQN-18">
          <mxGeometry relative="1" as="geometry" />
        </mxCell>
      </root>
    </mxGraphModel>
  </diagram>
</mxfile>
